<svg width="17" height="17" viewBox="0 0 17 17" fill="none" xmlns="http://www.w3.org/2000/svg">
<path fill-rule="evenodd" clip-rule="evenodd" d="M11.4667 10.7952H12.2082L16.1875 14.7933C16.5723 15.1781 16.5723 15.8069 16.1875 16.1917C15.8027 16.5765 15.1739 16.5765 14.7891 16.1917L10.8004 12.203V11.4615L10.547 11.1988C9.23305 12.325 7.44048 12.9069 5.53528 12.5878C2.9262 12.1467 0.842684 9.96929 0.523587 7.34144C0.0355572 3.3715 3.37669 0.0303692 7.34662 0.518399C9.97448 0.837496 12.1518 2.92101 12.5929 5.53009C12.912 7.43529 12.3302 9.22786 11.2039 10.5418L11.4667 10.7952ZM2.35357 6.57184C2.35357 8.90875 4.24 10.7952 6.57691 10.7952C8.91382 10.7952 10.8002 8.90875 10.8002 6.57184C10.8002 4.23492 8.91382 2.3485 6.57691 2.3485C4.24 2.3485 2.35357 4.23492 2.35357 6.57184Z" fill="white" fill-opacity="0.54"/>
</svg>
