<svg width="14" height="3" viewBox="0 0 14 3" fill="none" xmlns="http://www.w3.org/2000/svg">
<path fill-rule="evenodd" clip-rule="evenodd" d="M1.18743 0.974915L1.31707 1.37394H1.73667L1.39719 1.62058L1.52687 2.0196L1.18739 1.77299L0.847986 2.0196L0.977625 1.62058L0.638184 1.37394H1.05775L1.18743 0.974915ZM3.56242 0.974915L3.69209 1.37394H4.1117L3.77222 1.62058L3.90189 2.0196L3.56242 1.77299L3.22301 2.0196L3.35265 1.62058L3.01321 1.37394H3.43278L3.56242 0.974915ZM5.93751 0.974915L6.06715 1.37394H6.48676L6.14728 1.62058L6.27695 2.0196L5.93751 1.77299L5.59807 2.0196L5.72771 1.62058L5.38827 1.37394H5.80787L5.93751 0.974915ZM8.31247 0.974915L8.4421 1.37394H8.86167L8.52223 1.62058L8.65187 2.0196L8.31247 1.77299L7.97299 2.0196L8.10266 1.62058L7.76319 1.37394H8.18279L8.31247 0.974915ZM10.6875 0.974915L10.8172 1.37394H11.2368L10.8973 1.62058L11.027 2.0196L10.6875 1.77299L10.3481 2.0196L10.4777 1.62058L10.1383 1.37394H10.5579L10.6875 0.974915ZM13.0626 0.974915L13.1922 1.37394H13.6118L13.2724 1.62058L13.402 2.0196L13.0626 1.77299L12.7231 2.0196L12.8528 1.62058L12.5133 1.37394H12.933L13.0626 0.974915Z" fill="white"/>
</svg>
